<?xml version="1.0" encoding="utf-8"?>
<!-- Generator: Adobe Illustrator 16.0.0, SVG Export Plug-In . SVG Version: 6.00 Build 0)  -->
<!DOCTYPE svg PUBLIC "-//W3C//DTD SVG 1.1//EN" "http://www.w3.org/Graphics/SVG/1.1/DTD/svg11.dtd">
<svg version="1.1" id="Layer_1" xmlns="http://www.w3.org/2000/svg" xmlns:xlink="http://www.w3.org/1999/xlink" x="0px" y="0px"
	 width="200px" height="185.186px" viewBox="0 0 200 185.186" enable-background="new 0 0 200 185.186" xml:space="preserve">
<g>
	<linearGradient id="SVGID_1_" gradientUnits="userSpaceOnUse" x1="100" y1="177.7578" x2="100" y2="7.4277">
		<stop  offset="0" style="stop-color:#F5BF00"/>
		<stop  offset="0.5123" style="stop-color:#FFD028"/>
		<stop  offset="1" style="stop-color:#FFF3C4"/>
	</linearGradient>
	<path fill="url(#SVGID_1_)" d="M31.225,177.758c-10.537,0-18.946-4.099-23.073-11.246c-4.126-7.147-3.471-16.479,1.797-25.604
		L78.724,21.786C83.992,12.66,91.747,7.427,100,7.427s16.008,5.233,21.276,14.358l68.775,119.123
		c5.269,9.124,5.922,18.456,1.796,25.604s-12.536,11.246-23.071,11.246H31.225z"/>
	<g>
		<g>
			<path fill="#8C7100" d="M100,8.153c7.986,0,15.513,5.101,20.647,13.995l68.775,119.123c5.135,8.893,5.789,17.962,1.797,24.878
				c-3.994,6.916-12.174,10.883-22.444,10.883H31.225c-10.271,0-18.451-3.967-22.444-10.883c-3.994-6.916-3.338-15.984,1.796-24.878
				L79.353,22.148C84.487,13.254,92.014,8.153,100,8.153L100,8.153z M100,7.427c-8.253,0-16.008,5.233-21.276,14.358L9.949,140.908
				c-5.268,9.124-5.923,18.456-1.797,25.604c4.127,7.147,12.537,11.246,23.073,11.246h137.55c10.536,0,18.946-4.099,23.072-11.246
				s3.473-16.479-1.796-25.604L121.276,21.786C116.008,12.661,108.253,7.427,100,7.427L100,7.427z"/>
		</g>
	</g>
	<g>
		<g>
			<path d="M100,19.25c3.973,0,7.893,3,11.037,8.447l34.388,59.56l34.388,59.563c3.146,5.446,3.784,10.342,1.797,13.781
				c-1.986,3.441-6.544,5.336-12.834,5.336H100H31.225c-6.29,0-10.848-1.895-12.834-5.336c-1.986-3.439-1.348-8.335,1.796-13.781
				l34.388-59.563l34.388-59.56C92.107,22.25,96.027,19.25,100,19.25L100,19.25z M100,14.895c-5.359,0-10.72,3.541-14.809,10.624
				L50.804,85.08l-34.388,59.562c-8.178,14.165-1.548,25.649,14.809,25.649H100h68.775c16.357,0,22.986-11.484,14.809-25.649
				L149.196,85.08l-34.388-59.561C110.72,18.436,105.359,14.895,100,14.895L100,14.895z"/>
		</g>
	</g>
	<path d="M99.79,151.049c-4.77,0-7.975-3.373-7.975-8.395c0-5.099,3.239-8.395,8.254-8.395c4.983,0,8.018,3.169,8.116,8.474
		c-0.001,5.02-3.187,8.315-8.116,8.315H99.79z M94.996,124.213l-3.052-62.871c-0.122-2.52,1.419-5.645,3.693-6.367
		c1.421-0.451,2.833-0.674,4.252-0.674c1.443,0,2.928,0.242,4.444,0.723c2.378,0.754,4.015,3.888,3.894,6.407l-3.047,62.782
		c-0.123,2.519-2.267,4.562-4.789,4.562h-0.606C97.262,128.774,95.118,126.731,94.996,124.213z"/>
</g>
</svg>
