<?xml version="1.0" encoding="utf-8"?>
<!-- Generator: Adobe Illustrator 16.0.0, SVG Export Plug-In . SVG Version: 6.00 Build 0)  -->
<!DOCTYPE svg PUBLIC "-//W3C//DTD SVG 1.1//EN" "http://www.w3.org/Graphics/SVG/1.1/DTD/svg11.dtd">
<svg version="1.1" id="Layer_1" xmlns="http://www.w3.org/2000/svg" xmlns:xlink="http://www.w3.org/1999/xlink" x="0px" y="0px"
	 width="23px" height="23px" viewBox="0 0 23 23" enable-background="new 0 0 23 23" xml:space="preserve">
<g>
	<path fill-rule="evenodd" clip-rule="evenodd" fill="#008391" stroke="#008391" stroke-width="0.6" stroke-miterlimit="10" d="
		M0.863,18.004c0.146-0.175,0.278-0.362,0.438-0.521c2.461-2.467,4.925-4.932,7.392-7.392c0.117-0.116,0.149-0.212,0.105-0.38
		c-0.685-2.583-0.116-4.867,1.729-6.793c1.159-1.209,2.617-1.861,4.289-2.022c0.055-0.005,0.108-0.022,0.161-0.033
		c0.309,0,0.616,0,0.925,0c0.033,0.01,0.065,0.025,0.1,0.028c1.641,0.141,3.06,0.778,4.248,1.916
		c0.918,0.879,1.553,1.937,1.869,3.171c0.113,0.444,0.17,0.903,0.253,1.354c0,0.308,0,0.616,0,0.924
		c-0.078,0.432-0.126,0.873-0.239,1.295c-0.519,1.938-1.664,3.402-3.432,4.348c-1.654,0.885-3.399,1.051-5.203,0.532
		c-0.15-0.043-0.24-0.011-0.346,0.095c-0.441,0.449-0.896,0.887-1.339,1.334c-0.174,0.176-0.372,0.26-0.618,0.254
		c-0.342-0.01-0.684-0.003-1.05-0.003c0,0.363,0.001,0.711,0,1.059c-0.001,0.539-0.302,0.799-0.83,0.727
		c-0.269-0.037-0.539-0.062-0.829-0.094c-0.036,0.367-0.076,0.721-0.103,1.073c-0.044,0.608-0.229,0.797-0.841,0.846
		c-0.174,0.013-0.348,0.029-0.522,0.046c-0.173,0.016-0.347,0.033-0.551,0.055c0.03,0.268,0.047,0.53,0.09,0.788
		c0.051,0.308-0.02,0.562-0.253,0.777c-0.242,0.225-0.463,0.468-0.702,0.694c-0.114,0.106-0.249,0.194-0.374,0.29
		c-1.302,0-2.604,0-3.907,0c-0.154-0.153-0.308-0.309-0.462-0.462C0.863,20.608,0.863,19.306,0.863,18.004z M2.123,21.099
		c0.046,0.009,0.06,0.013,0.074,0.013c0.707,0.001,1.415-0.017,2.121,0.009c0.342,0.014,0.599-0.064,0.82-0.335
		c0.108-0.134,0.15-0.247,0.127-0.411c-0.048-0.353-0.095-0.707-0.12-1.063c-0.025-0.383,0.201-0.64,0.584-0.683
		c0.418-0.045,0.836-0.087,1.254-0.118c0.129-0.011,0.178-0.047,0.188-0.185c0.028-0.404,0.076-0.808,0.114-1.212
		c0.042-0.439,0.304-0.667,0.746-0.63c0.278,0.023,0.554,0.059,0.854,0.092c0-0.356-0.002-0.698,0.001-1.039
		c0.004-0.426,0.255-0.68,0.679-0.683c0.434-0.004,0.868,0.007,1.302-0.007c0.098-0.003,0.218-0.051,0.289-0.118
		c0.485-0.466,0.966-0.936,1.434-1.416c0.269-0.276,0.555-0.333,0.912-0.201c0.932,0.343,1.895,0.454,2.871,0.268
		c2.296-0.442,3.858-1.782,4.501-4.021c0.642-2.236,0.043-4.209-1.674-5.799c-1.849-1.712-4.82-1.908-6.905-0.484
		c-2.18,1.491-3.056,4.128-2.182,6.622c0.137,0.393,0.077,0.686-0.221,0.981c-2.032,2.018-4.054,4.046-6.079,6.071
		c-0.563,0.565-1.123,1.134-1.685,1.7c-0.002,0.798-0.004,1.596-0.006,2.395C2.123,20.924,2.123,21.008,2.123,21.099z"/>
	<path fill-rule="evenodd" clip-rule="evenodd" fill="#008391" d="M18.111,6.509c0,1.036-0.84,1.878-1.879,1.887
		c-1.038,0.007-1.9-0.857-1.892-1.895c0.01-1.041,0.854-1.88,1.889-1.875C17.268,4.63,18.11,5.473,18.111,6.509z M16.853,6.505
		c-0.003-0.348-0.282-0.624-0.632-0.621c-0.348,0.003-0.622,0.281-0.619,0.63c0.002,0.35,0.279,0.624,0.63,0.621
		C16.581,7.132,16.854,6.854,16.853,6.505z"/>
</g>
</svg>
