<?xml version="1.0" encoding="utf-8"?>
<!-- Generator: Adobe Illustrator 16.0.3, SVG Export Plug-In . SVG Version: 6.00 Build 0)  -->
<!DOCTYPE svg PUBLIC "-//W3C//DTD SVG 1.1//EN" "http://www.w3.org/Graphics/SVG/1.1/DTD/svg11.dtd">
<svg version="1.1" id="Layer_1" xmlns="http://www.w3.org/2000/svg" xmlns:xlink="http://www.w3.org/1999/xlink" x="0px" y="0px"
	 width="30px" height="30px" viewBox="0 0 30 30" enable-background="new 0 0 30 30" xml:space="preserve">
<path fill-rule="evenodd" clip-rule="evenodd" fill="#288391" d="M16.922,5.042c0-0.606,0-1.136,0-1.825
	c-0.451,0-0.904,0.105-1.269-0.029c-0.365-0.138-0.929-0.372-0.955-0.787c-0.023-0.396,0.519-0.825,0.799-0.84
	c1.534-0.083,3.077-0.083,4.612-0.001c0.273,0.015,0.713,0.54,0.723,0.838c0.006,0.263-0.439,0.659-0.765,0.779
	c-0.372,0.135-0.833,0.03-1.323,0.03c0,0.661,0,1.216,0,1.852c0.692,0.15,1.422,0.275,2.133,0.468
	c5.674,1.54,9.254,6.937,8.53,12.846c-0.687,5.622-5.679,10.044-11.432,10.129c-4.588,0.068-8.974-2.692-10.769-6.854
	c-0.169-0.391-0.134-1.182,0.124-1.384c0.727-0.574,1.119,0.043,1.419,0.68c1.352,2.851,3.538,4.711,6.604,5.504
	c4.652,1.198,9.493-1.112,11.505-5.476c1.994-4.331,0.655-9.45-3.208-12.257c-3.88-2.818-9.246-2.456-12.716,0.855
	c-0.079,0.075-0.154,0.151-0.229,0.227c-0.477,0.477-0.978,1.174-1.673,0.437C8.35,9.507,9.086,9.007,9.544,8.542
	C11.374,6.686,12.924,5.957,16.922,5.042z"/>
<path fill-rule="evenodd" clip-rule="evenodd" fill="#288391" d="M17.456,19.265c-1.046-0.974-2.043-1.801-2.896-2.757
	c-0.252-0.283-0.3-1.057-0.091-1.375c0.385-0.59,0.988-0.386,1.462,0.072c0.462,0.447,0.928,0.89,1.487,1.426
	c1.061-0.998,2.146-2.022,3.237-3.042c0.599-0.562,1.207-1.118,1.811-1.677c0.491-0.459,1.021-0.565,1.499-0.034
	c0.444,0.496,0.272,0.986-0.175,1.411C21.657,15.3,19.527,17.311,17.456,19.265z"/>
<path fill-rule="evenodd" clip-rule="evenodd" fill="#288391" d="M6.436,12.627c-1.574,0-3.148-0.008-4.722,0.006
	c-0.645,0.005-1.217-0.156-1.214-0.882c0.003-0.742,0.595-0.848,1.23-0.845c3.076,0.013,6.152,0.009,9.229,0
	c0.613-0.001,1.233,0.044,1.257,0.811c0.028,0.835-0.613,0.917-1.273,0.914C9.441,12.623,7.939,12.629,6.436,12.627z"/>
<path fill-rule="evenodd" clip-rule="evenodd" fill="#288391" d="M6.416,16.012c-1.168,0-2.338-0.01-3.506,0.004
	c-0.479,0.008-0.903-0.155-0.902-0.881c0.002-0.742,0.442-0.848,0.913-0.845c2.285,0.013,4.569,0.009,6.854,0.001
	c0.455-0.002,0.916,0.044,0.933,0.811c0.022,0.835-0.454,0.918-0.946,0.914C8.648,16.006,7.532,16.012,6.416,16.012z"/>
<path fill-rule="evenodd" clip-rule="evenodd" fill="#288391" d="M6.395,19.533c-0.728,0-1.456-0.01-2.182,0.004
	c-0.298,0.007-0.562-0.155-0.561-0.88c0.001-0.744,0.275-0.85,0.568-0.847c1.421,0.014,2.843,0.01,4.264,0
	c0.283,0,0.569,0.046,0.58,0.813c0.014,0.834-0.281,0.917-0.588,0.914C7.783,19.527,7.089,19.533,6.395,19.533z"/>
</svg>
