<?xml version="1.0" encoding="utf-8"?>
<!-- Generator: Adobe Illustrator 16.0.3, SVG Export Plug-In . SVG Version: 6.00 Build 0)  -->
<!DOCTYPE svg PUBLIC "-//W3C//DTD SVG 1.1//EN" "http://www.w3.org/Graphics/SVG/1.1/DTD/svg11.dtd">
<svg version="1.1" id="Layer_1" xmlns="http://www.w3.org/2000/svg" xmlns:xlink="http://www.w3.org/1999/xlink" x="0px" y="0px"
	 width="100px" height="80px" viewBox="0 0 100 80" enable-background="new 0 0 100 80" xml:space="preserve">
<g>
	<path fill="none" stroke="#70B244" stroke-width="3" stroke-linecap="round" stroke-linejoin="round" stroke-miterlimit="10" d="
		M80.622,68.863c0,3.39-2.748,6.137-6.139,6.137H31.597c-3.389,0-6.137-2.747-6.137-6.137V11.137C25.46,7.749,28.208,5,31.597,5
		h42.886c3.391,0,6.139,2.749,6.139,6.137V68.863z"/>
	
		<line fill="none" stroke="#70B244" stroke-width="3" stroke-linecap="round" stroke-linejoin="round" stroke-miterlimit="10" x1="32.066" y1="17.414" x2="19.378" y2="17.414"/>
	
		<line fill="none" stroke="#70B244" stroke-width="3" stroke-linecap="round" stroke-linejoin="round" stroke-miterlimit="10" x1="19.378" y1="62.587" x2="32.066" y2="62.587"/>
	
		<line fill="none" stroke="#70B244" stroke-width="3" stroke-linecap="round" stroke-linejoin="round" stroke-miterlimit="10" x1="32.066" y1="31.62" x2="19.378" y2="31.62"/>
	
		<line fill="none" stroke="#70B244" stroke-width="3" stroke-linecap="round" stroke-linejoin="round" stroke-miterlimit="10" x1="19.378" y1="48.38" x2="32.066" y2="48.38"/>
	
		<circle fill="none" stroke="#582B85" stroke-width="3" stroke-linecap="round" stroke-linejoin="round" stroke-miterlimit="10" cx="53.25" cy="30.835" r="6.68"/>
	<path fill="none" stroke="#582B85" stroke-width="3" stroke-linecap="round" stroke-linejoin="round" stroke-miterlimit="10" d="
		M41.658,55.905c0-6.401,5.189-11.592,11.593-11.592c6.401,0,11.592,5.191,11.592,11.592"/>
</g>
</svg>
