<?xml version="1.0" encoding="utf-8"?>
<!-- Generator: Adobe Illustrator 16.0.3, SVG Export Plug-In . SVG Version: 6.00 Build 0)  -->
<!DOCTYPE svg PUBLIC "-//W3C//DTD SVG 1.1//EN" "http://www.w3.org/Graphics/SVG/1.1/DTD/svg11.dtd">
<svg version="1.1" id="Layer_1" xmlns="http://www.w3.org/2000/svg" xmlns:xlink="http://www.w3.org/1999/xlink" x="0px" y="0px"
	 width="100px" height="80px" viewBox="0 0 100 80" enable-background="new 0 0 100 80" xml:space="preserve">
<g>
	<path fill="none" stroke="#70B244" stroke-width="3" stroke-linecap="round" stroke-linejoin="round" stroke-miterlimit="10" d="
		M64.875,24.474h4.814c2.992,0,5.419,2.427,5.419,5.421v4.348"/>
	<path fill="none" stroke="#70B244" stroke-width="3" stroke-linecap="round" stroke-linejoin="round" stroke-miterlimit="10" d="
		M69.689,75H18.721c-2.992,0-5.418-2.426-5.418-5.418V29.895c0-2.994,2.426-5.421,5.418-5.421h4.477"/>
	
		<polyline fill="none" stroke="#582B85" stroke-width="3" stroke-linecap="round" stroke-linejoin="round" stroke-miterlimit="10" points="
		23.198,43.271 23.198,5 56.487,5 64.875,13.301 64.875,34.242 	"/>
	
		<polyline fill="none" stroke="#582B85" stroke-width="3" stroke-linecap="round" stroke-linejoin="round" stroke-miterlimit="10" points="
		64.57,15.835 53.735,15.835 53.735,5 	"/>
	
		<line fill="none" stroke="#70B244" stroke-width="3" stroke-linecap="round" stroke-linejoin="round" stroke-miterlimit="10" x1="44.823" y1="13.65" x2="32.11" y2="13.65"/>
	
		<line fill="none" stroke="#70B244" stroke-width="3" stroke-linecap="round" stroke-linejoin="round" stroke-miterlimit="10" x1="44.823" y1="20.334" x2="32.11" y2="20.334"/>
	
		<line fill="none" stroke="#70B244" stroke-width="3" stroke-linecap="round" stroke-linejoin="round" stroke-miterlimit="10" x1="50" y1="27.063" x2="32.11" y2="27.063"/>
	<path fill="none" stroke="#70B244" stroke-width="3" stroke-linecap="round" stroke-linejoin="round" stroke-miterlimit="10" d="
		M82.901,34.242c2.992,0,4.536,2.426,3.446,5.42l-10.89,29.92C74.369,72.574,71.06,75,68.067,75H17.098
		c-2.992,0-4.535-2.426-3.446-5.418l10.89-29.92c1.089-2.994,4.399-5.42,7.391-5.42H82.901z"/>
</g>
</svg>
