<?xml version="1.0" encoding="utf-8"?>
<!-- Generator: Adobe Illustrator 16.0.0, SVG Export Plug-In . SVG Version: 6.00 Build 0)  -->
<!DOCTYPE svg PUBLIC "-//W3C//DTD SVG 1.1//EN" "http://www.w3.org/Graphics/SVG/1.1/DTD/svg11.dtd">
<svg version="1.1" id="Layer_1" xmlns="http://www.w3.org/2000/svg" xmlns:xlink="http://www.w3.org/1999/xlink" x="0px" y="0px"
	 width="23px" height="23px" viewBox="0 0 23 23" enable-background="new 0 0 23 23" xml:space="preserve">
<path fill-rule="evenodd" clip-rule="evenodd" fill="#DA1F26" d="M1.656,0.321c0.437,0,0.874,0,1.311,0c0,0.292,0,0.585,0,0.902
	c0.104-0.042,0.17-0.068,0.236-0.096c2.095-0.882,4.232-1.026,6.416-0.368c0.939,0.283,1.79,0.756,2.656,1.202
	c1.574,0.813,3.242,1.126,5.008,0.853c1.151-0.179,2.209-0.606,3.21-1.189c0.261-0.151,0.524-0.301,0.815-0.467
	c0,0.127,0,0.213,0,0.299c0,4.038,0,8.077,0,12.114c0,0.305,0.103,0.684-0.038,0.898c-0.157,0.244-0.53,0.355-0.821,0.502
	c-1.914,0.969-3.924,1.33-6.049,0.936c-1.198-0.221-2.301-0.693-3.365-1.281c-2.578-1.424-5.2-1.504-7.856-0.211
	c-0.157,0.076-0.217,0.16-0.217,0.34c0.007,2.643,0.005,5.283,0.005,7.926c-0.437,0-0.874,0-1.311,0
	C1.656,15.227,1.656,7.773,1.656,0.321z"/>
</svg>
