<?xml version="1.0" encoding="utf-8"?>
<!-- Generator: Adobe Illustrator 16.0.3, SVG Export Plug-In . SVG Version: 6.00 Build 0)  -->
<!DOCTYPE svg PUBLIC "-//W3C//DTD SVG 1.1//EN" "http://www.w3.org/Graphics/SVG/1.1/DTD/svg11.dtd">
<svg version="1.1" id="Layer_1" xmlns="http://www.w3.org/2000/svg" xmlns:xlink="http://www.w3.org/1999/xlink" x="0px" y="0px"
	 width="100px" height="80px" viewBox="0 0 100 80" enable-background="new 0 0 100 80" xml:space="preserve">
<g>
	<path fill="none" stroke="#70B244" stroke-width="3" stroke-linecap="round" stroke-linejoin="round" stroke-miterlimit="10" d="
		M66.244,10.776h5.272c3.402,0,6.16,2.758,6.16,6.159v51.907c0,3.401-2.758,6.158-6.16,6.158H28.481c-3.4,0-6.158-2.757-6.158-6.158
		V16.935c0-3.4,2.758-6.159,6.158-6.159h5.274"/>
	<path fill="none" stroke="#70B244" stroke-width="3" stroke-linecap="round" stroke-linejoin="round" stroke-miterlimit="10" d="
		M66.244,10.394c0,3.401-2.539,6.158-5.672,6.158H39.426c-3.131,0-5.67-2.757-5.67-6.158v0.765c0-3.4,2.539-6.159,5.67-6.159h21.146
		c3.133,0,5.672,2.758,5.672,6.159V10.394z"/>
	
		<rect x="30.6" y="24.623" fill="none" stroke="#70B244" stroke-width="3" stroke-linecap="round" stroke-linejoin="round" stroke-miterlimit="10" width="9.365" height="9.366"/>
	
		<line fill="none" stroke="#70B244" stroke-width="3" stroke-linecap="round" stroke-linejoin="round" stroke-miterlimit="10" x1="46.739" y1="29.306" x2="69.568" y2="29.306"/>
	
		<polyline fill="none" stroke="#582B85" stroke-width="3" stroke-linecap="round" stroke-linejoin="round" stroke-miterlimit="10" points="
		39.965,41.216 34.947,49.581 30.6,47.57 	"/>
	
		<line fill="none" stroke="#70B244" stroke-width="3" stroke-linecap="round" stroke-linejoin="round" stroke-miterlimit="10" x1="46.739" y1="45.898" x2="69.568" y2="45.898"/>
	
		<polyline fill="none" stroke="#582B85" stroke-width="3" stroke-linecap="round" stroke-linejoin="round" stroke-miterlimit="10" points="
		39.965,57.81 34.947,66.174 30.6,64.163 	"/>
	
		<line fill="none" stroke="#70B244" stroke-width="3" stroke-linecap="round" stroke-linejoin="round" stroke-miterlimit="10" x1="46.739" y1="62.491" x2="69.568" y2="62.491"/>
</g>
</svg>
