<?xml version="1.0" encoding="utf-8"?>
<!-- Generator: Adobe Illustrator 16.0.3, SVG Export Plug-In . SVG Version: 6.00 Build 0)  -->
<!DOCTYPE svg PUBLIC "-//W3C//DTD SVG 1.1//EN" "http://www.w3.org/Graphics/SVG/1.1/DTD/svg11.dtd">
<svg version="1.1" id="Layer_1" xmlns="http://www.w3.org/2000/svg" xmlns:xlink="http://www.w3.org/1999/xlink" x="0px" y="0px"
	 width="100px" height="80px" viewBox="0 0 100 80" enable-background="new 0 0 100 80" xml:space="preserve">
<path fill="none" stroke="#70B244" stroke-width="3" stroke-linecap="round" stroke-linejoin="round" stroke-miterlimit="10" d="
	M80.301,46.099"/>
<polyline fill="none" stroke="#70B244" stroke-width="3" stroke-linecap="round" stroke-linejoin="round" stroke-miterlimit="10" points="
	31.277,41.216 18.614,47.279 7.76,73.394 28.021,63.104 50,74.5 "/>
<line fill="none" stroke="#70B244" stroke-width="3" stroke-linecap="round" stroke-linejoin="round" stroke-miterlimit="10" x1="50" y1="59.012" x2="50" y2="74.5"/>
<line fill="none" stroke="#70B244" stroke-width="3" stroke-linecap="round" stroke-linejoin="round" stroke-miterlimit="10" x1="32.3" y1="50.804" x2="28.021" y2="63.104"/>
<polyline fill="none" stroke="#70B244" stroke-width="3" stroke-linecap="round" stroke-linejoin="round" stroke-miterlimit="10" points="
	68.723,41.216 81.386,47.279 92.239,73.394 71.979,63.104 50,74.5 "/>
<line fill="none" stroke="#70B244" stroke-width="3" stroke-linecap="round" stroke-linejoin="round" stroke-miterlimit="10" x1="67.7" y1="50.804" x2="71.979" y2="63.104"/>
<path fill="none" stroke="#70B244" stroke-width="3" stroke-linecap="round" stroke-linejoin="round" stroke-miterlimit="10" d="
	M50,4.5c-10.013,0-18.156,8.145-18.156,18.157c0,9.464,15.069,25.756,16.788,27.585L50,51.694l1.368-1.452
	c1.721-1.829,16.79-18.121,16.79-27.585C68.157,12.645,60.011,4.5,50,4.5z"/>
<path fill="none" stroke="#582B85" stroke-width="3" stroke-linecap="round" stroke-linejoin="round" stroke-miterlimit="10" d="
	M50,30.171c-4.143,0-7.512-3.371-7.512-7.513s3.37-7.513,7.512-7.513c4.142,0,7.513,3.371,7.513,7.513S54.142,30.171,50,30.171z"/>
</svg>
