<?xml version="1.0" encoding="utf-8"?>
<!-- Generator: Adobe Illustrator 16.0.3, SVG Export Plug-In . SVG Version: 6.00 Build 0)  -->
<!DOCTYPE svg PUBLIC "-//W3C//DTD SVG 1.1//EN" "http://www.w3.org/Graphics/SVG/1.1/DTD/svg11.dtd">
<svg version="1.1" id="Layer_1" xmlns="http://www.w3.org/2000/svg" xmlns:xlink="http://www.w3.org/1999/xlink" x="0px" y="0px"
	 width="100px" height="80px" viewBox="0 0 100 80" enable-background="new 0 0 100 80" xml:space="preserve">
<path fill="none" stroke="#70B244" stroke-width="3" stroke-linecap="round" stroke-linejoin="round" stroke-miterlimit="10" d="
	M50,75c0-2.977-2.623-6.231-5.86-6.231H10.858C7.624,68.769,5,65.849,5,62.246V11.522C5,7.92,7.624,5,10.858,5H44.14
	C47.377,5,50,7.92,50,11.522V75z"/>
<path fill="none" stroke="#70B244" stroke-width="3" stroke-linecap="round" stroke-linejoin="round" stroke-miterlimit="10" d="
	M50,75c0-2.977,2.623-6.231,5.86-6.231h33.282c3.235,0,5.857-2.92,5.857-6.522V11.522C95,7.92,92.378,5,89.143,5H55.86
	C52.623,5,50,7.92,50,11.522V75z"/>
<rect x="50" y="17.548" fill="none" stroke="#70B244" stroke-width="3" stroke-linecap="round" stroke-linejoin="round" stroke-miterlimit="10" width="35.48" height="38.171"/>
<rect x="14.518" y="17.548" fill="none" stroke="#70B244" stroke-width="3" stroke-linecap="round" stroke-linejoin="round" stroke-miterlimit="10" width="35.482" height="38.171"/>
<rect x="26.153" y="29.837" fill="none" stroke="#582B85" stroke-width="3" stroke-linecap="round" stroke-linejoin="round" stroke-miterlimit="10" width="12.211" height="13.595"/>
<rect x="61.634" y="29.837" fill="none" stroke="#582B85" stroke-width="3" stroke-linecap="round" stroke-linejoin="round" stroke-miterlimit="10" width="12.212" height="13.595"/>
</svg>
