<svg width="182" height="40" viewBox="0 0 182 40" fill="none" xmlns="http://www.w3.org/2000/svg">
<path d="M18.4772 38.7813C8.2661 38.7813 0 30.5196 0 20.314C0 10.1084 8.2661 1.84674 18.4772 1.84674C28.6882 1.84674 36.9543 10.1084 36.9543 20.314C36.9543 30.5196 28.6882 38.7813 18.4772 38.7813ZM18.4772 3.30468C9.09271 3.30468 1.45872 10.9346 1.45872 20.314C1.45872 29.6934 9.09271 37.3233 18.4772 37.3233C27.8616 37.3233 35.4956 29.6934 35.4956 20.314C35.4956 10.9346 27.8616 3.30468 18.4772 3.30468Z" fill="#008391"/>
<path d="M19.79 30.2765H3.88988C3.50089 30.2765 3.16052 29.9364 3.16052 29.5476C3.16052 29.1588 3.50089 28.8186 3.88988 28.8186H19.79C20.179 28.8186 20.5193 29.1588 20.5193 29.5476C20.4707 29.9364 20.179 30.2765 19.79 30.2765Z" fill="#008391"/>
<path d="M21.2001 22.5981C18.0882 22.5981 15.5111 20.071 15.5111 16.9121C15.5111 13.7532 18.0396 11.2261 21.2001 11.2261C24.3607 11.2261 26.8891 13.7532 26.8891 16.9121C26.8891 20.071 24.3121 22.5981 21.2001 22.5981ZM21.2001 12.6841C18.8175 12.6841 16.9212 14.628 16.9212 16.9607C16.9212 19.2934 18.8662 21.2373 21.2001 21.2373C23.5341 21.2373 25.479 19.2934 25.479 16.9607C25.479 14.628 23.5341 12.6841 21.2001 12.6841Z" fill="#008391"/>
<path d="M21.2 27.6037C20.811 27.6037 20.5193 27.3121 20.5193 26.9233C20.5193 26.5345 20.811 26.2429 21.2 26.2429C21.4918 26.2429 21.7349 26.2429 22.0266 26.1943C22.4156 26.1457 22.756 26.4373 22.8046 26.8261C22.8532 27.2149 22.5615 27.5551 22.1725 27.6037C21.8321 27.6037 21.4918 27.6037 21.2 27.6037Z" fill="#008391"/>
<path d="M30.8762 19.7308C30.7789 19.7308 30.6331 19.9738 30.5358 19.9252C30.2441 19.7794 30.0982 19.3906 30.1954 19.0991C30.3413 18.4187 30.4386 17.6897 30.4386 16.9607C30.4386 11.8579 26.3055 7.67851 21.1514 7.67851C17.4559 7.67851 14.0036 10.0598 12.5935 13.5589C12.4477 13.8991 12.1073 14.0935 11.7669 14.0449C11.3293 13.9477 11.0862 13.5103 11.2807 13.0729C12.9339 8.99066 16.9211 6.26917 21.1514 6.26917C27.0349 6.26917 31.8 11.0318 31.8 16.9121C31.8 17.7869 31.7028 18.6131 31.5083 19.4392C31.4597 19.828 31.2166 19.7308 30.8762 19.7308Z" fill="#008391"/>
<path d="M21.6377 27.8953C21.5404 27.8953 21.4918 27.8953 21.3946 27.8467C16.678 26.1943 13.8578 21.6261 12.6422 18.127C11.3294 14.2878 9.14129 10.9345 6.22384 9.185C5.88347 8.99061 5.78622 8.55322 5.98072 8.21304C6.17522 7.87285 6.61283 7.77565 6.9532 7.97005C8.50917 8.89341 11.9615 11.6635 14.0037 17.6897C15.6083 22.3551 18.5257 25.3682 21.8808 26.5345C22.2698 26.6803 22.4643 27.0691 22.3184 27.4579C22.2212 27.7009 21.9294 27.8953 21.6377 27.8953Z" fill="#008391"/>
<path d="M8.16882 34.8447C8.02295 34.8447 7.87707 34.7961 7.68258 34.6503C7.39083 34.3588 7.39083 33.9214 7.63395 33.6298C7.7312 33.5326 7.87707 33.4354 7.97432 33.4354C8.02295 33.3868 8.12019 33.3868 8.16882 33.3382C9.04405 32.9008 11.2808 31.7345 13.4688 32.1232C17.3101 32.755 19.012 30.1307 21.0056 27.1176C21.5404 26.2915 22.1239 25.4167 22.756 24.6391C25.1386 21.5775 27.7157 19.5363 30.4387 18.613C32.6754 17.8354 34.3286 18.0298 35.1066 18.127C35.2038 18.127 35.3011 18.127 35.3497 18.1756C35.6901 18.127 36.0304 18.3214 36.1277 18.6616C36.2735 19.0504 36.0304 19.4391 35.6901 19.5849C35.4956 19.6335 35.3011 19.6335 34.9607 19.5849C33.502 19.4391 29.0772 18.9532 23.8744 25.5625C23.2909 26.2915 22.756 27.1662 22.2212 27.9438C20.2276 30.9569 17.9909 34.4074 13.2257 33.5812C11.5239 33.2896 9.57892 34.3102 8.80093 34.6503C8.65506 34.7475 8.41194 34.8447 8.16882 34.8447ZM8.50919 33.5326C8.55781 33.5812 8.60643 33.5812 8.65506 33.6298C8.60643 33.5812 8.55781 33.5326 8.50919 33.5326Z" fill="#008391"/>
<path d="M153.798 23.813C152.534 23.813 151.318 23.813 150.054 23.813C150.054 23.6672 150.005 23.5215 150.005 23.4243C150.005 20.8486 150.005 18.2729 150.005 15.6972C150.005 14.6766 150.005 13.656 150.005 12.6355C150.005 12.1009 149.908 11.5663 149.665 11.0803C149.13 10.0598 147.914 9.52521 146.796 9.8168C145.678 10.1084 144.851 11.2261 144.851 12.3439C144.9 15.9888 144.851 19.6822 144.851 23.3271C144.851 23.4729 144.851 23.6187 144.851 23.813C144.414 23.9102 143.976 23.8616 143.587 23.8616C143.198 23.8616 142.76 23.8616 142.371 23.8616C141.934 23.8616 141.545 23.8616 141.058 23.8616C141.058 23.6672 141.01 23.5215 141.01 23.3757C141.01 20.8972 141.01 18.3701 141.01 15.8916C141.01 14.7738 141.01 13.656 141.01 12.5869C141.01 12.1009 140.961 11.6149 140.718 11.1775C140.232 10.1084 138.968 9.47661 137.801 9.8168C136.536 10.157 135.71 11.2747 135.71 12.4897C135.71 16.1345 135.71 19.7794 135.71 23.4243C135.71 23.5701 135.71 23.6672 135.71 23.813C135.418 23.9102 132.403 23.9102 131.966 23.813C131.966 23.7158 131.917 23.6187 131.917 23.4729C131.917 19.6822 131.868 15.9402 131.917 12.1495C131.966 10.3514 132.646 8.79624 133.959 7.58128C135.078 6.51213 136.391 5.92895 137.947 5.83175C139.794 5.73456 141.399 6.26914 142.712 7.53269C142.76 7.58129 142.809 7.62988 142.858 7.67848C142.955 7.58129 143.052 7.53269 143.101 7.43549C144.17 6.41493 145.435 5.88035 146.893 5.78316C147.817 5.73456 148.741 5.83175 149.568 6.17194C151.367 6.90091 152.631 8.21306 153.263 10.0598C153.555 10.886 153.701 11.7607 153.701 12.6355C153.701 16.2317 153.701 19.828 153.701 23.4243C153.798 23.5701 153.798 23.7158 153.798 23.813Z" fill="#008391"/>
<path d="M171.594 23.8617C170.233 23.8617 168.969 23.8617 167.656 23.8617C167.413 23.0355 167.121 22.2093 166.878 21.3832C166.586 21.286 161.675 21.2374 160.751 21.3346C160.411 22.1607 160.216 23.0355 159.925 23.8617C158.612 23.8617 157.299 23.8617 156.035 23.8617C156.035 23.5701 161.189 6.60935 161.335 6.26917C162.988 6.26917 164.641 6.26917 166.294 6.26917C168.093 12.1009 169.844 17.9327 171.594 23.8617ZM163.766 11.2262C163.134 13.3159 162.502 15.4056 161.87 17.4953C162.21 17.5925 165.371 17.5925 165.662 17.4953C165.565 16.9121 163.96 11.5178 163.766 11.2262Z" fill="#008391"/>
<path d="M119.518 6.22052C121.171 6.22052 122.825 6.22052 124.526 6.22052C126.277 12.1009 128.027 17.9327 129.826 23.813C128.514 23.813 127.201 23.813 125.888 23.813C125.645 22.9869 125.353 22.1607 125.11 21.2373C124.624 21.1887 124.089 21.2373 123.603 21.2373C123.116 21.2373 122.581 21.2373 122.095 21.2373C121.609 21.2373 121.074 21.2373 120.588 21.2373C120.102 21.2373 119.567 21.2373 119.032 21.2373C118.74 22.1121 118.497 22.9383 118.254 23.813C116.941 23.813 115.628 23.813 114.364 23.813C114.218 23.57 119.275 6.7065 119.518 6.22052ZM123.894 17.5439C123.7 16.7177 122.144 11.5177 121.949 11.2747C121.317 13.3644 120.685 15.4542 120.053 17.5439C121.366 17.5439 122.581 17.5439 123.894 17.5439Z" fill="#008391"/>
<path d="M72.5471 6.26917C73.8113 6.26917 75.0269 6.26917 76.2425 6.26917C76.3884 6.41496 76.3398 6.56075 76.3398 6.70655C76.3398 8.31028 76.3398 9.91402 76.3398 11.5178C76.3398 13.4131 76.3398 15.3084 76.3398 17.2037C76.3398 17.8355 76.4856 18.4187 76.7774 18.9533C77.5067 20.1196 78.9655 20.6542 80.2783 20.1682C81.4939 19.6822 82.0774 18.7589 82.2233 17.4953C82.2233 17.3009 82.2233 17.1065 82.2233 16.8635C82.2233 13.4617 82.2233 10.1084 82.2233 6.70655C82.2233 6.56075 82.2233 6.41496 82.2233 6.31776C82.515 6.22057 85.5297 6.22057 86.016 6.26917C86.016 6.41496 86.016 6.56075 86.016 6.70655C86.016 10.157 86.016 13.6561 86.016 17.1065C86.016 17.6411 85.9673 18.1757 85.8701 18.7103C85.5297 20.557 84.6059 22.0635 83.0499 23.1327C82.1747 23.7159 81.2022 24.1047 80.1324 24.2019C79.0141 24.3476 77.8957 24.2505 76.826 23.8617C74.9297 23.1327 73.5682 21.8691 72.8874 19.9252C72.5957 19.0505 72.4498 18.1757 72.4498 17.2523C72.4498 13.9477 72.4498 10.643 72.4498 7.38692C72.4498 7.09533 72.4498 6.80374 72.4498 6.51216C72.4985 6.41496 72.5471 6.36636 72.5471 6.26917Z" fill="#008391"/>
<path d="M69.1921 12.1495C67.9278 12.1495 66.7122 12.1495 65.3994 12.1495C65.3994 12.0037 65.3994 11.8579 65.3994 11.7121C65.3508 11.4205 65.3508 11.1289 65.3021 10.8373C65.2049 10.3999 64.9131 10.0598 64.4755 9.86537C63.7462 9.57378 63.0168 9.52518 62.2874 9.91397C61.6553 10.2542 61.5581 10.9831 61.9957 11.5663C62.2388 11.9065 62.5792 12.1009 62.9682 12.2953C63.892 12.7813 64.7673 13.2186 65.6911 13.7046C66.9554 14.385 67.9765 15.2598 68.7544 16.4747C69.4352 17.5439 69.7269 18.7588 69.6297 20.0224C69.4838 21.3345 68.8517 22.4037 67.7333 23.1812C66.615 23.9588 65.3994 24.299 64.0379 24.3476C63.4058 24.3476 62.7737 24.3476 62.1902 24.2018C60.8773 23.8616 59.759 23.2298 58.9324 22.1121C58.3975 21.3831 58.1058 20.6055 57.9599 19.7308C57.8626 19.1962 57.9113 18.7102 57.9113 18.1756C58.2516 18.0784 61.2663 18.0784 61.6553 18.1756C61.704 18.4186 61.704 18.7102 61.7526 18.9532C61.8498 19.6822 62.1902 20.1682 62.8709 20.4112C63.6975 20.7027 64.4755 20.6541 65.2049 20.2168C65.6425 19.9252 65.837 19.5364 65.7398 19.0504C65.6911 18.613 65.4966 18.2728 65.1076 17.9812C64.6214 17.5925 64.0865 17.3495 63.5517 17.0579C62.5792 16.5719 61.6067 16.0373 60.6828 15.4056C59.7104 14.7252 58.8838 13.9476 58.3975 12.927C57.7654 11.6149 57.6682 10.2542 58.203 8.89341C58.6406 7.87285 59.4186 7.14388 60.3911 6.6579C61.1691 6.26911 61.9957 6.07472 62.8223 5.97752C63.892 5.88033 64.9131 6.02612 65.9343 6.41491C67.6361 7.09528 68.6086 8.35883 68.9976 10.0598C69.2407 10.6429 69.2407 11.3719 69.1921 12.1495Z" fill="#008391"/>
<path d="M93.4068 17.3495C93.4068 19.5364 93.4068 21.6747 93.4068 23.8131C93.0664 23.8617 90.0517 23.9103 89.6627 23.8617C89.5655 23.5701 89.5655 7.09532 89.6141 6.31776C89.7113 6.31776 89.8086 6.26916 89.9058 6.26916C91.8994 6.26916 93.8444 6.22056 95.838 6.26916C97.3453 6.31776 98.6096 6.94953 99.582 8.11588C100.603 9.33084 101.041 10.7402 100.895 12.2953C100.749 14.2392 99.8738 15.7944 98.1233 16.7177C97.2967 17.1551 96.4215 17.3495 95.4976 17.3495C94.9627 17.3495 94.4279 17.3495 93.893 17.3495C93.6985 17.3495 93.6013 17.3495 93.4068 17.3495ZM93.4068 10.0598C93.3095 10.5944 93.3582 13.2673 93.4068 13.5103C93.4554 13.5103 93.4554 13.5589 93.504 13.5589C94.0875 13.5589 94.6224 13.5589 95.2059 13.5589C95.7407 13.5103 96.1783 13.3159 96.5187 12.9271C96.9563 12.3925 97.1022 11.8093 96.8105 11.1776C96.5673 10.5458 96.0325 10.157 95.3517 10.0598C94.7196 10.0112 94.0875 10.0598 93.4068 10.0598Z" fill="#008391"/>
<path d="M103.229 6.22052C103.375 6.22052 103.521 6.22052 103.618 6.22052C105.417 6.22052 107.216 6.22052 109.015 6.22052C110.279 6.22052 111.446 6.56071 112.468 7.38687C113.197 7.97005 113.732 8.65042 114.072 9.47659C114.753 11.1775 114.753 12.9271 113.878 14.5794C113.1 16.0859 111.835 16.9121 110.182 17.2037C109.307 17.3981 108.432 17.3009 107.557 17.3495C107.411 17.3495 107.216 17.3495 107.022 17.3495C107.022 17.5439 106.973 17.6897 106.973 17.8355C106.973 19.6822 106.973 21.5289 106.973 23.4242C106.973 23.57 106.973 23.7158 106.973 23.8616C105.709 23.8616 104.493 23.8616 103.278 23.8616C103.278 23.8616 103.229 23.8616 103.229 23.813C103.229 23.813 103.229 23.813 103.229 23.7644C103.229 23.7158 103.229 23.6672 103.229 23.6186C103.229 17.8841 103.229 12.1495 103.229 6.36631C103.18 6.36631 103.18 6.31772 103.229 6.22052ZM106.973 13.5102C107.07 13.5102 107.119 13.5588 107.168 13.5588C107.702 13.5588 108.237 13.5588 108.772 13.5588C108.967 13.5588 109.21 13.5102 109.404 13.413C110.182 13.1214 110.668 12.2953 110.523 11.5177C110.377 10.7401 109.647 10.1084 108.772 10.0598C108.286 10.0598 107.751 10.0598 107.265 10.0598C107.168 10.0598 107.119 10.0598 106.973 10.1084C106.973 11.2261 106.973 12.3439 106.973 13.5102Z" fill="#008391"/>
<path d="M175.922 0V0.583177H174.123V5.1514H173.491V0.583177H171.692V0H175.922Z" fill="#008391"/>
<path d="M182 0V5.1514H181.417V1.94392L181.465 0.583177L179.763 5.19999H179.229L177.527 0.583177L177.575 1.94392V5.19999H176.992V0H177.964L179.083 3.11028L179.472 4.42242L179.861 3.15887L180.979 0H182Z" fill="#008391"/>
<path d="M89.0503 30.2318H84.6304V39.8542H87.1394V36.6467H89.0503C91.3843 36.6467 92.77 35.4804 92.77 33.4393C92.77 31.4127 91.3843 30.2318 89.0503 30.2318ZM88.6564 34.766H87.1394V32.1125H88.6564C89.7067 32.1125 90.2465 32.5499 90.2465 33.4393C90.2465 34.3286 89.7067 34.766 88.6564 34.766Z" fill="#008391"/>
<path d="M99.5617 39.8542H102.144L98.7739 30.2318H95.769L92.3847 39.8542H94.9083L95.5793 37.6819H98.9052L99.5617 39.8542ZM96.1191 35.9761L96.8338 33.658L97.2277 32.1563H97.2569L97.6799 33.6725L98.3801 35.9761H96.1191Z" fill="#008391"/>
<path d="M112.059 39.8542L109.55 35.9761C110.805 35.5533 111.49 34.6056 111.49 33.1914C111.49 31.3836 110.148 30.2318 107.858 30.2318H103.263V39.8542H105.729V36.3406H107.231L109.288 39.8542H112.059ZM105.729 32.1271H107.508C108.486 32.1271 108.967 32.4916 108.967 33.3372C108.967 34.1974 108.486 34.5619 107.508 34.5619H105.729V32.1271Z" fill="#008391"/>
<path d="M121.302 30.2318H112.506V32.1709H115.657V39.8542H118.166V32.1709H121.302V30.2318Z" fill="#008391"/>
<path d="M131.416 30.2318H129.199V35.0867L129.257 36.8654H129.243L128.513 35.4366L125.523 30.2318H122.737V39.8542H124.954V34.9993L124.896 33.2206H124.91L125.64 34.6494L128.63 39.8542H131.416V30.2318Z" fill="#008391"/>
<path d="M133.549 39.8542H141.236V37.9151H136.058V35.9469H140.026V34.1245H136.058V32.1709H141.047V30.2318H133.549V39.8542Z" fill="#008391"/>
<path d="M151.547 39.8542L149.038 35.9761C150.293 35.5533 150.979 34.6056 150.979 33.1914C150.979 31.3836 149.637 30.2318 147.346 30.2318H142.751V39.8542H145.217V36.3406H146.719L148.776 39.8542H151.547ZM145.217 32.1271H146.996C147.974 32.1271 148.455 32.4916 148.455 33.3372C148.455 34.1974 147.974 34.5619 146.996 34.5619H145.217V32.1271Z" fill="#008391"/>
<path d="M156.572 30.086C153.961 30.086 152.415 31.4127 152.415 33.2206C152.415 34.8243 153.596 35.5533 155.23 35.9032L157.01 36.2968C157.827 36.4864 158.075 36.778 158.06 37.1862C158.06 37.7548 157.535 38.0609 156.543 38.0609C155.23 38.0609 153.917 37.4486 153.188 36.603L151.977 38.2796C152.94 39.3148 154.632 40 156.572 40C158.935 40 160.642 38.9065 160.642 36.8509C160.642 35.4366 159.781 34.6056 157.856 34.1682L156.237 33.8038C155.391 33.6142 155.026 33.3518 155.026 32.929C155.026 32.4187 155.449 32.0251 156.528 32.0251C157.739 32.0251 158.673 32.4624 159.519 33.3372L160.729 31.7189C159.723 30.64 158.352 30.086 156.572 30.086Z" fill="#008391"/>
<path d="M64.0865 30.1789H60.391V32.22H63.3085V32.949H60.391V35.8163H59.613V29.45H64.0865V30.1789Z" fill="#008391"/>
<path d="M69.046 29.3533C69.6781 29.3533 70.1644 29.4991 70.602 29.7421C71.0396 30.0336 71.38 30.3738 71.6231 30.8598C71.8662 31.3458 72.0121 31.929 72.0121 32.6093C72.0121 33.2897 71.9149 33.8729 71.6231 34.3589C71.3314 34.8449 71.0396 35.2336 70.602 35.5252C70.1644 35.8168 69.6295 35.914 69.046 35.914C68.4139 35.914 67.9277 35.7682 67.4901 35.5252C67.0524 35.2336 66.7121 34.8935 66.469 34.3589C66.2258 33.8243 66.08 33.2897 66.08 32.6093C66.08 31.929 66.1772 31.3458 66.469 30.8598C66.7121 30.3738 67.0524 29.985 67.4901 29.7421C67.9277 29.4505 68.4625 29.3533 69.046 29.3533ZM69.046 30.0822C68.6084 30.0822 68.2194 30.1794 67.8791 30.3738C67.5387 30.5682 67.2956 30.8598 67.1497 31.2486C66.9552 31.6374 66.9066 32.0748 66.9066 32.6579C66.9066 33.1925 67.0038 33.6785 67.1497 34.0673C67.3442 34.4561 67.5873 34.7477 67.8791 34.942C68.2194 35.1364 68.6084 35.2336 69.046 35.2336C69.4836 35.2336 69.8726 35.1364 70.213 34.942C70.5534 34.7477 70.7965 34.4561 70.9424 34.0673C71.1369 33.6785 71.1855 33.2411 71.1855 32.6579C71.1855 32.1234 71.0882 31.6374 70.9424 31.2486C70.7479 30.8598 70.5047 30.5682 70.213 30.3738C69.9213 30.1794 69.5323 30.0822 69.046 30.0822Z" fill="#008391"/>
<path d="M77.1663 29.4505C77.7984 29.4505 78.3332 29.5963 78.7222 29.9365C79.1112 30.2767 79.3057 30.7141 79.3057 31.2972C79.3057 31.8804 79.1112 32.3178 78.7222 32.658C78.3332 32.9982 77.7984 33.144 77.1663 33.144L77.1176 33.1926H75.5617V35.8654H74.7837V29.4505H77.1663ZM77.1663 32.4636C77.6039 32.4636 77.9929 32.3664 78.1874 32.172C78.3819 31.9776 78.5277 31.686 78.5277 31.2972C78.5277 30.9084 78.4305 30.6169 78.1874 30.4225C77.9443 30.2281 77.6039 30.1309 77.1663 30.1309H75.5131V32.415H77.1663V32.4636ZM77.6039 32.6094L79.7433 35.8654H78.7709L76.9231 33.0468L77.6039 32.6094Z" fill="#008391"/>
</svg>
