<?xml version="1.0" encoding="utf-8"?>
<!-- Generator: Adobe Illustrator 16.0.0, SVG Export Plug-In . SVG Version: 6.00 Build 0)  -->
<!DOCTYPE svg PUBLIC "-//W3C//DTD SVG 1.1//EN" "http://www.w3.org/Graphics/SVG/1.1/DTD/svg11.dtd">
<svg version="1.1" id="Layer_1" xmlns="http://www.w3.org/2000/svg" xmlns:xlink="http://www.w3.org/1999/xlink" x="0px" y="0px"
	 width="23px" height="23px" viewBox="0 0 23 23" enable-background="new 0 0 23 23" xml:space="preserve">
<g>
	<path fill="#008391" d="M14.366,6.374c-0.557,0-1.107,0-1.68,0c0-0.093,0-0.174,0-0.254c0-0.957,0-1.911-0.003-2.868
		c0-0.62-0.333-0.958-0.954-0.958c-2.819,0-5.642,0-8.463,0C2.661,2.296,2.318,2.637,2.318,3.237c0,5.508,0,11.016,0,16.522
		c0,0.605,0.336,0.953,0.938,0.953c2.831,0.006,5.656,0.006,8.489,0c0.604,0,0.938-0.348,0.938-0.95
		c0.003-0.941,0.003-1.883,0.003-2.823c0-0.083,0-0.165,0-0.262c0.566,0,1.115,0,1.689,0c0.004,0.083,0.012,0.163,0.012,0.242
		c0.002,0.947,0.003,1.896,0,2.846c-0.006,1.553-1.099,2.651-2.648,2.653c-2.822,0.004-5.646,0.004-8.467,0
		c-1.551-0.002-2.65-1.098-2.65-2.65c-0.005-5.516-0.005-11.029,0-16.544c0-1.537,1.103-2.641,2.635-2.644
		c2.833-0.003,5.658-0.003,8.489,0c1.491,0.003,2.603,1.06,2.634,2.531c0.026,1.04,0.008,2.078,0.008,3.116
		C14.388,6.275,14.376,6.318,14.366,6.374z"/>
	<path fill="#008391" d="M22.382,11.535c-2.048,2.048-4.13,4.13-6.232,6.23c0-1.795,0-3.585,0-5.396c-3.078,0-6.13,0-9.199,0
		c-0.012-0.077-0.027-0.136-0.027-0.192c0-0.44,0.009-0.879-0.003-1.319c-0.009-0.174,0.053-0.217,0.222-0.214
		c0.825,0.006,1.651,0.003,2.481,0.003c2.07,0,4.141,0,6.212,0c0.094,0,0.18,0,0.293,0c0-1.811,0-3.606,0-5.363
		C18.209,7.364,20.297,9.451,22.382,11.535z M19.953,11.553c-0.715-0.711-1.428-1.426-2.09-2.09c0,1.335,0,2.759,0,4.184
		C18.585,12.924,19.296,12.213,19.953,11.553z"/>
</g>
</svg>
