<?xml version="1.0" encoding="utf-8"?>
<!-- Generator: Adobe Illustrator 16.0.3, SVG Export Plug-In . SVG Version: 6.00 Build 0)  -->
<!DOCTYPE svg PUBLIC "-//W3C//DTD SVG 1.1//EN" "http://www.w3.org/Graphics/SVG/1.1/DTD/svg11.dtd">
<svg version="1.1" id="Layer_1" xmlns="http://www.w3.org/2000/svg" xmlns:xlink="http://www.w3.org/1999/xlink" x="0px" y="0px"
	 width="100px" height="80px" viewBox="0 0 100 80" enable-background="new 0 0 100 80" xml:space="preserve">
<g>
	
		<circle fill="none" stroke="#582B85" stroke-width="3" stroke-linecap="round" stroke-linejoin="round" stroke-miterlimit="10" cx="30.765" cy="23.748" r="5.339"/>
	<path fill="none" stroke="#70B244" stroke-width="3" stroke-linecap="round" stroke-linejoin="round" stroke-miterlimit="10" d="
		M78.863,29.087c3.389,0,6.137,2.748,6.137,6.139v33.887c0,3.389-2.748,6.137-6.137,6.137H21.137c-3.389,0-6.137-2.748-6.137-6.137
		V35.226c0-3.391,2.748-6.139,6.137-6.139H78.863z"/>
	<path fill="none" stroke="#70B244" stroke-width="3" stroke-linecap="round" stroke-linejoin="round" stroke-miterlimit="10" d="
		M72,59.681v9.432c0,3.389-2.748,6.137-6.137,6.137H21.137c-3.389,0-6.137-2.748-6.137-6.137V35.226
		c0-3.391,2.748-6.139,6.137-6.139h44.727c3.389,0,6.137,2.748,6.137,6.139v9.378"/>
	<path fill="none" stroke="#70B244" stroke-width="3" stroke-linecap="round" stroke-linejoin="round" stroke-miterlimit="10" d="
		M85,59.681H62.773c-4.077,0-7.386-3.307-7.386-7.386v-0.253c0-4.079,3.309-7.387,7.386-7.387H85"/>
	
		<circle fill="none" stroke="#582B85" stroke-width="3" stroke-linecap="round" stroke-linejoin="round" stroke-miterlimit="10" cx="49.839" cy="15.367" r="7.447"/>
	
		<line fill="none" stroke="#70B244" stroke-width="3" stroke-linecap="round" stroke-linejoin="round" stroke-miterlimit="10" x1="30.765" y1="10.669" x2="30.765" y2="13.667"/>
	
		<line fill="none" stroke="#70B244" stroke-width="3" stroke-linecap="round" stroke-linejoin="round" stroke-miterlimit="10" x1="36.833" y1="4.751" x2="36.833" y2="13.667"/>
	
		<line fill="none" stroke="#70B244" stroke-width="3" stroke-linecap="round" stroke-linejoin="round" stroke-miterlimit="10" x1="63" y1="52.168" x2="66.708" y2="52.168"/>
</g>
</svg>
