<svg width="231" height="241" viewBox="0 0 231 241" fill="none" xmlns="http://www.w3.org/2000/svg">
<path d="M57.8 167.076C57.4 156.976 49.1 148.876 38.9 148.876C29 148.876 20.9 156.476 20 166.076" stroke="#9FDAE1" stroke-opacity="0.6" stroke-width="2.3895" stroke-miterlimit="10"/>
<path d="M50.7 186.076C50.5 180.376 45.8 175.876 40.1 175.876C38.2 175.876 36.5 176.376 35 177.176C33.6 177.876 32.5 178.976 31.6 180.176" stroke="#9FDAE1" stroke-opacity="0.6" stroke-width="2.3895" stroke-miterlimit="10"/>
<path d="M40.3 192.376H27.2" stroke="#9FDAE1" stroke-opacity="0.6" stroke-width="2.3895" stroke-miterlimit="10"/>
<path d="M-0.599998 200.076H16" stroke="#9FDAE1" stroke-opacity="0.6" stroke-width="2.3895" stroke-miterlimit="10"/>
<path d="M-16 231.576H28.5" stroke="#9FDAE1" stroke-opacity="0.6" stroke-width="2.3895" stroke-miterlimit="10"/>
<path d="M21.5 224.176H42.2" stroke="#9FDAE1" stroke-opacity="0.6" stroke-width="2.3895" stroke-miterlimit="10"/>
<path d="M9.7 78.4761H54.3" stroke="#9FDAE1" stroke-opacity="0.6" stroke-width="2.3895" stroke-miterlimit="10"/>
<path d="M-1.6 306.976C84.7 261.576 132.1 193.076 135.6 104.676" stroke="#9FDAE1" stroke-opacity="0.6" stroke-width="2.3895" stroke-miterlimit="10"/>
<path d="M124.6 107.276C114.2 159.576 81.7 226.376 -8.2 260.576" stroke="#9FDAE1" stroke-opacity="0.6" stroke-width="2.3895" stroke-miterlimit="10"/>
<path d="M93.8 228.276C85.3 229.576 71.8 227.676 65.6 224.476" stroke="#9FDAE1" stroke-opacity="0.6" stroke-width="2.3895" stroke-miterlimit="10"/>
<path d="M55.4 231.976C55.4 231.976 47 239.076 36.8 244.776" stroke="#9FDAE1" stroke-opacity="0.6" stroke-width="2.3895" stroke-miterlimit="10"/>
<path d="M-7.4 132.576H9.2" stroke="#9FDAE1" stroke-opacity="0.6" stroke-width="2.3895" stroke-miterlimit="10"/>
<path d="M43.5 85.576H60" stroke="#9FDAE1" stroke-opacity="0.6" stroke-width="2.3895" stroke-miterlimit="10"/>
<path d="M143.8 77.776C143.8 77.776 204.7 46.776 228.7 109.976C228.7 109.976 208.4 106.676 199.9 86.776C199.9 86.776 193.1 95.876 202.3 106.376C202.3 106.376 191.1 104.176 184.8 87.376C184.8 87.376 177.6 94.576 184.5 105.276C180.7 105.076 169.4 96.676 167.6 85.076C167.6 85.076 160.2 92.476 166.5 103.476C154.1 99.776 157.9 86.376 147.9 82.376" stroke="#9FDAE1" stroke-opacity="0.6" stroke-width="2.3895" stroke-miterlimit="10"/>
<path d="M118.7 68.5761C118.7 68.5761 92.9 14.4761 35.1 59.4761C35.1 59.4761 54.3 66.7761 71.6 53.7761C71.6 53.7761 72.9 65.0761 59.7 69.5761C59.7 69.5761 70.5 73.2761 84.3 61.8761C84.3 61.8761 86.9 71.6761 75.6 77.5761C79 79.2761 93 77.6761 100.4 68.4761C100.4 68.4761 103.1 78.6761 92.1 84.9761C105.6 85.0761 111.2 77.5761 112.6 75.4761" stroke="#9FDAE1" stroke-opacity="0.6" stroke-width="2.3895" stroke-miterlimit="10"/>
<path d="M137.5 63.7761C147.8 44.2761 169.8 15.1761 195.5 27.2761C204.1 31.2761 207.5 42.4761 219.8 48.7761C219.8 48.7761 200.3 49.6761 189.3 39.1761C189.3 39.1761 193 52.7761 203.2 55.9761C203.2 55.9761 184.6 58.8761 169.7 43.9761C169.7 43.9761 169 56.5761 179 61.1761C179 61.1761 164.9 67.4761 154.9 56.2761C154.9 56.2761 153.2 63.8761 157.4 68.7761C157.4 68.7761 152.4 64.0761 142.3 70.7761" stroke="#9FDAE1" stroke-opacity="0.6" stroke-width="2.3895" stroke-miterlimit="10"/>
<path d="M133.7 62.776C134.5 40.776 130.9 6.67602 101.8 2.17602C92.4 0.676019 83.8 9.27602 70 8.57602C70 8.57602 86.4 19.076 101.2 15.476C101.2 15.476 90 24.676 79.5 22.376C79.5 22.376 94.2 34.176 114.6 28.676C114.6 28.676 108.2 37.076 97.2 36.076C97.2 36.076 106.2 48.576 120.5 43.876C120.5 43.876 118.1 51.276 112.1 53.476C112.1 53.476 118.8 51.876 124.2 62.776" stroke="#9FDAE1" stroke-opacity="0.6" stroke-width="2.3895" stroke-miterlimit="10"/>
<path d="M105.6 88.876C83.6 88.076 49.5 91.676 45 120.776C43.5 130.176 52.1 138.776 51.4 152.576C51.4 152.576 61.9 136.176 58.3 121.376C58.3 121.376 67.5 132.576 65.2 143.076C65.2 143.076 77 128.376 71.5 107.976C71.5 107.976 79.9 114.376 78.9 125.376C78.9 125.376 91.4 116.376 86.7 102.076C86.7 102.076 94.1 104.476 96.3 110.476C96.3 110.476 94.7 103.776 105.6 98.376" stroke="#9FDAE1" stroke-opacity="0.6" stroke-width="2.3895" stroke-miterlimit="10"/>
<path d="M119.5 85.876C124.8 85.876 129.1 90.176 129.1 95.476C129.1 100.776 124.8 105.076 119.5 105.076C114.2 105.076 109.9 100.776 109.9 95.476C109.9 90.176 114.2 85.876 119.5 85.876Z" stroke="#9FDAE1" stroke-opacity="0.6" stroke-width="2.3895" stroke-miterlimit="10"/>
<path d="M130.1 65.876C135.4 65.876 139.7 70.176 139.7 75.476C139.7 80.776 135.4 85.076 130.1 85.076C124.8 85.076 120.5 80.776 120.5 75.476C120.5 70.176 124.8 65.876 130.1 65.876Z" stroke="#9FDAE1" stroke-opacity="0.6" stroke-width="2.3895" stroke-miterlimit="10"/>
<path d="M142.3 84.9761C147.6 84.9761 151.9 89.2761 151.9 94.5761C151.9 99.8761 147.6 104.176 142.3 104.176C137 104.176 132.7 99.8761 132.7 94.5761C132.7 89.2761 137 84.9761 142.3 84.9761Z" stroke="#9FDAE1" stroke-opacity="0.6" stroke-width="2.3895" stroke-miterlimit="10"/>
<path d="M71.1 32.676C70.7 23.476 63.2 16.076 53.9 16.076C44.9 16.076 37.5 22.976 36.7 31.676" stroke="#9FDAE1" stroke-opacity="0.6" stroke-width="2.3895" stroke-miterlimit="10"/>
<path d="M84 36.376C82.3 33.576 79.2 31.776 75.8 31.776C74.1 31.776 72.5 32.176 71.2 32.976C70 33.676 68.9 34.576 68.1 35.776" stroke="#9FDAE1" stroke-opacity="0.6" stroke-width="2.3895" stroke-miterlimit="10"/>
<path d="M11.1 47.176C11.3 41.976 15.5 37.876 20.7 37.876C22.4 37.876 24 38.276 25.3 39.076C26.5 39.776 27.6 40.676 28.4 41.876" stroke="#9FDAE1" stroke-opacity="0.6" stroke-width="2.3895" stroke-miterlimit="10"/>
<path d="M-1 56.2761C-0.8 51.0761 3.4 46.9761 8.6 46.9761C10.3 46.9761 11.9 47.3761 13.2 48.1761C14.4 48.8761 15.5 49.7761 16.3 50.9761" stroke="#9FDAE1" stroke-opacity="0.6" stroke-width="2.3895" stroke-miterlimit="10"/>
<path d="M-9.1 56.276H19.8" stroke="#9FDAE1" stroke-opacity="0.6" stroke-width="2.3895" stroke-miterlimit="10"/>
</svg>
